<svg xmlns="http://www.w3.org/2000/svg" xmlns:xlink="http://www.w3.org/1999/xlink" width="500" zoomAndPan="magnify" viewBox="0 0 375 374.999991" height="500" preserveAspectRatio="xMidYMid meet" version="1.0"><defs><clipPath id="048fd21eb8"><path d="M 66.667969 74.824219 L 308.167969 74.824219 L 308.167969 299.824219 L 66.667969 299.824219 Z M 66.667969 74.824219 " clip-rule="nonzero"/></clipPath></defs><path fill="#737373" d="M 227.632812 275.714844 L 227.632812 78.839844 L 151.226562 99.308594 L 151.226562 295.804688 L 227.632812 275.714844 " fill-opacity="1" fill-rule="nonzero"/><path fill="#a6a6a6" d="M 70.796875 78.839844 L 70.796875 275.339844 L 151.226562 295.804688 L 151.226562 99.308594 L 70.796875 78.839844 " fill-opacity="1" fill-rule="nonzero"/><path fill="#a6a6a6" d="M 304.039062 95.210938 L 304.039062 291.710938 L 227.632812 275.714844 L 227.632812 78.839844 L 304.039062 95.210938 " fill-opacity="1" fill-rule="nonzero"/><path fill="#d9d9d9" d="M 267.84375 148.433594 L 254.507812 127.996094 C 252.71875 125.25 251.761719 122.066406 251.761719 118.816406 C 251.761719 112.507812 255.765625 106.839844 261.875 104.503906 C 265.710938 103.042969 269.980469 103.042969 273.816406 104.503906 C 279.925781 106.839844 283.929688 112.507812 283.929688 118.816406 C 283.929688 122.066406 282.972656 125.25 281.183594 127.996094 L 267.84375 148.433594 " fill-opacity="1" fill-rule="nonzero"/><path fill="#a6a6a6" d="M 267.84375 111.660156 C 263.414062 111.660156 259.800781 115.285156 259.800781 119.726562 C 259.800781 124.183594 263.414062 127.792969 267.84375 127.792969 C 272.273438 127.792969 275.886719 124.183594 275.886719 119.726562 C 275.886719 115.285156 272.273438 111.660156 267.84375 111.660156 " fill-opacity="1" fill-rule="nonzero"/><g clip-path="url(#048fd21eb8)"><path fill="#545454" d="M 74.816406 84.003906 L 147.203125 102.429688 L 147.203125 177.734375 L 146.9375 177.640625 C 144.847656 176.933594 142.554688 178.078125 141.863281 180.183594 C 141.15625 182.285156 142.300781 184.5625 144.40625 185.269531 L 147.203125 186.195312 L 147.203125 290.625 L 74.816406 272.214844 Z M 300.015625 286.765625 L 231.652344 272.453125 L 231.652344 205.65625 L 236.648438 207.960938 C 237.199219 208.214844 237.777344 208.339844 238.328125 208.339844 C 239.851562 208.339844 241.3125 207.476562 241.988281 206 C 242.914062 203.992188 242.035156 201.589844 240.027344 200.664062 L 231.652344 196.804688 L 231.652344 83.816406 L 300.015625 98.460938 Z M 223.609375 193.304688 C 223.546875 193.335938 223.484375 193.335938 223.4375 193.382812 C 221.613281 194.652344 221.175781 197.164062 222.449219 198.984375 L 223.609375 200.648438 L 223.609375 272.625 L 155.246094 290.59375 L 155.246094 185.785156 L 161.011719 182.914062 C 163.007812 181.910156 163.808594 179.492188 162.816406 177.515625 C 161.828125 175.535156 159.410156 174.722656 157.414062 175.710938 L 155.246094 176.808594 L 155.246094 102.382812 L 223.609375 84.082031 Z M 69.808594 279.230469 L 150.234375 299.699219 C 150.566406 299.777344 150.894531 299.824219 151.226562 299.824219 C 151.570312 299.824219 151.914062 299.777344 152.246094 299.699219 L 227.742188 279.84375 L 303.207031 295.648438 C 304.398438 295.898438 305.640625 295.601562 306.566406 294.832031 C 307.507812 294.0625 308.058594 292.917969 308.058594 291.710938 L 308.058594 95.210938 C 308.058594 93.328125 306.738281 91.679688 304.886719 91.289062 L 228.480469 74.917969 C 228.226562 74.855469 227.976562 74.855469 227.710938 74.839844 C 227.695312 74.839844 227.664062 74.824219 227.632812 74.824219 C 227.617188 74.824219 227.617188 74.824219 227.601562 74.824219 C 227.253906 74.839844 226.925781 74.871094 226.59375 74.964844 L 151.195312 95.148438 L 71.785156 74.949219 C 70.59375 74.652344 69.304688 74.902344 68.332031 75.671875 C 67.355469 76.425781 66.773438 77.601562 66.773438 78.839844 L 66.773438 275.339844 C 66.773438 277.175781 68.015625 278.777344 69.808594 279.230469 " fill-opacity="1" fill-rule="nonzero"/></g><path fill="#545454" d="M 97.234375 250.273438 L 91.910156 256.300781 C 90.449219 257.964844 90.605469 260.507812 92.253906 261.96875 C 93.023438 262.644531 93.984375 262.988281 94.925781 262.988281 C 96.039062 262.988281 97.140625 262.515625 97.941406 261.621094 L 103.265625 255.597656 C 104.742188 253.933594 104.585938 251.40625 102.90625 249.929688 C 101.238281 248.453125 98.710938 248.613281 97.234375 250.273438 " fill-opacity="1" fill-rule="nonzero"/><path fill="#545454" d="M 115.109375 230.058594 L 104.898438 241.613281 C 103.421875 243.277344 103.582031 245.816406 105.246094 247.277344 C 106.015625 247.953125 106.957031 248.28125 107.917969 248.28125 C 109.03125 248.28125 110.132812 247.828125 110.933594 246.933594 L 121.144531 235.382812 C 122.621094 233.71875 122.460938 231.175781 120.796875 229.699219 C 119.132812 228.238281 116.585938 228.398438 115.109375 230.058594 " fill-opacity="1" fill-rule="nonzero"/><path fill="#545454" d="M 130.742188 209.046875 C 129.671875 207.113281 127.222656 206.410156 125.273438 207.476562 C 123.328125 208.558594 122.636719 211.007812 123.703125 212.9375 L 126.214844 217.488281 L 122.777344 221.382812 C 121.300781 223.0625 121.457031 225.585938 123.136719 227.0625 C 123.890625 227.738281 124.851562 228.066406 125.792969 228.066406 C 126.90625 228.066406 128.007812 227.613281 128.808594 226.703125 L 134.132812 220.691406 C 135.265625 219.402344 135.453125 217.566406 134.636719 216.078125 L 130.742188 209.046875 " fill-opacity="1" fill-rule="nonzero"/><path fill="#545454" d="M 117.59375 201.917969 C 118.332031 203.253906 119.699219 203.992188 121.128906 203.992188 C 121.769531 203.992188 122.445312 203.835938 123.058594 203.488281 C 125.007812 202.421875 125.714844 199.972656 124.628906 198.027344 L 116.492188 183.335938 C 115.425781 181.40625 112.972656 180.699219 111.027344 181.769531 C 109.078125 182.851562 108.371094 185.285156 109.457031 187.230469 L 117.59375 201.917969 " fill-opacity="1" fill-rule="nonzero"/><path fill="#545454" d="M 114.417969 171.046875 C 115.109375 168.945312 113.980469 166.667969 111.875 165.964844 L 104.242188 163.421875 C 102.667969 162.886719 100.941406 163.390625 99.875 164.660156 C 98.820312 165.933594 98.648438 167.738281 99.449219 169.179688 L 103.34375 176.210938 C 104.082031 177.53125 105.449219 178.285156 106.863281 178.285156 C 107.523438 178.285156 108.199219 178.125 108.8125 177.78125 C 110.289062 176.964844 111.042969 175.363281 110.855469 173.777344 C 112.441406 173.683594 113.886719 172.648438 114.417969 171.046875 " fill-opacity="1" fill-rule="nonzero"/><path fill="#545454" d="M 169.148438 178.378906 C 169.746094 178.378906 170.359375 178.238281 170.9375 177.953125 L 184.164062 171.347656 C 186.144531 170.359375 186.960938 167.941406 185.972656 165.949219 C 184.96875 163.96875 182.5625 163.152344 180.570312 164.15625 L 167.34375 170.765625 C 165.363281 171.753906 164.546875 174.171875 165.535156 176.148438 C 166.242188 177.5625 167.671875 178.378906 169.148438 178.378906 " fill-opacity="1" fill-rule="nonzero"/><path fill="#545454" d="M 136.425781 174.140625 L 122.398438 169.464844 C 120.277344 168.757812 118 169.902344 117.308594 172.003906 C 116.601562 174.109375 117.734375 176.382812 119.855469 177.089844 L 133.882812 181.769531 C 134.304688 181.910156 134.730469 181.972656 135.15625 181.972656 C 136.835938 181.972656 138.40625 180.90625 138.972656 179.226562 C 139.664062 177.121094 138.53125 174.847656 136.425781 174.140625 " fill-opacity="1" fill-rule="nonzero"/><path fill="#545454" d="M 194.078125 166.386719 L 198.179688 164.347656 L 200.800781 168.082031 C 201.585938 169.195312 202.828125 169.808594 204.101562 169.808594 C 204.886719 169.808594 205.703125 169.574219 206.394531 169.070312 C 208.214844 167.800781 208.65625 165.304688 207.382812 163.484375 L 202.78125 156.890625 C 201.632812 155.257812 199.464844 154.710938 197.675781 155.605469 L 190.496094 159.199219 C 188.5 160.1875 187.699219 162.605469 188.691406 164.597656 C 189.679688 166.574219 192.097656 167.375 194.078125 166.386719 " fill-opacity="1" fill-rule="nonzero"/><path fill="#545454" d="M 246.9375 212.703125 L 260.636719 219.027344 C 261.183594 219.277344 261.75 219.386719 262.332031 219.386719 C 263.839844 219.386719 265.300781 218.523438 265.976562 217.066406 C 266.902344 215.039062 266.023438 212.65625 264.011719 211.730469 L 250.300781 205.402344 C 248.289062 204.476562 245.902344 205.355469 244.972656 207.367188 C 244.046875 209.390625 244.910156 211.777344 246.9375 212.703125 " fill-opacity="1" fill-rule="nonzero"/><path fill="#545454" d="M 207.289062 177.359375 L 215.945312 189.710938 C 216.730469 190.824219 217.988281 191.421875 219.242188 191.421875 C 220.042969 191.421875 220.84375 191.183594 221.550781 190.699219 C 223.375 189.425781 223.8125 186.914062 222.542969 185.109375 L 213.886719 172.742188 C 212.613281 170.921875 210.101562 170.484375 208.277344 171.753906 C 206.457031 173.027344 206.015625 175.535156 207.289062 177.359375 " fill-opacity="1" fill-rule="nonzero"/><path fill="#545454" d="M 282.28125 214.820312 C 281.84375 212.640625 279.722656 211.226562 277.539062 211.667969 C 275.371094 212.105469 273.957031 214.222656 274.394531 216.390625 L 274.410156 216.53125 L 274.285156 216.46875 C 272.273438 215.542969 269.886719 216.421875 268.960938 218.429688 C 268.019531 220.457031 268.914062 222.839844 270.925781 223.765625 L 278.230469 227.125 C 278.761719 227.375 279.34375 227.503906 279.910156 227.503906 C 280.789062 227.503906 281.683594 227.203125 282.390625 226.640625 C 283.585938 225.699219 284.152344 224.175781 283.851562 222.699219 L 282.28125 214.820312 " fill-opacity="1" fill-rule="nonzero"/><path fill="#545454" d="M 275.652344 206.265625 C 275.917969 206.265625 276.1875 206.25 276.453125 206.1875 C 278.621094 205.75 280.035156 203.628906 279.59375 201.464844 L 276.03125 183.667969 C 275.605469 181.484375 273.5 180.074219 271.300781 180.511719 C 269.132812 180.9375 267.71875 183.054688 268.160156 185.234375 L 271.710938 203.035156 C 272.101562 204.949219 273.785156 206.265625 275.652344 206.265625 " fill-opacity="1" fill-rule="nonzero"/><path fill="#545454" d="M 270.21875 175.035156 C 272.386719 174.59375 273.800781 172.476562 273.359375 170.308594 L 271.789062 162.433594 C 271.347656 160.25 269.226562 158.835938 267.058594 159.277344 C 264.875 159.714844 263.460938 161.835938 263.902344 164 L 265.472656 171.878906 C 265.867188 173.792969 267.53125 175.113281 269.417969 175.113281 C 269.683594 175.113281 269.949219 175.082031 270.21875 175.035156 " fill-opacity="1" fill-rule="nonzero"/><path fill="#545454" d="M 263.304688 108.253906 C 264.765625 107.6875 266.304688 107.421875 267.84375 107.421875 C 269.386719 107.421875 270.925781 107.6875 272.386719 108.253906 C 276.957031 110.011719 279.910156 114.15625 279.910156 118.816406 C 279.910156 121.28125 279.1875 123.695312 277.804688 125.816406 L 267.84375 141.070312 L 257.886719 125.816406 C 256.503906 123.695312 255.78125 121.28125 255.78125 118.816406 C 255.78125 114.15625 258.734375 110.011719 263.304688 108.253906 Z M 264.46875 150.628906 C 265.222656 151.757812 266.480469 152.449219 267.84375 152.449219 C 269.210938 152.449219 270.46875 151.757812 271.222656 150.628906 L 284.542969 130.195312 C 286.773438 126.789062 287.953125 122.847656 287.953125 118.816406 C 287.953125 110.796875 282.972656 103.703125 275.261719 100.75 C 270.46875 98.914062 265.207031 98.929688 260.429688 100.75 C 252.71875 103.703125 247.738281 110.796875 247.738281 118.816406 C 247.738281 122.847656 248.917969 126.789062 251.148438 130.195312 L 264.46875 150.628906 " fill-opacity="1" fill-rule="nonzero"/><path fill="#545454" d="M 267.84375 127.792969 C 272.273438 127.792969 275.886719 124.183594 275.886719 119.726562 C 275.886719 115.285156 272.273438 111.660156 267.84375 111.660156 C 263.414062 111.660156 259.800781 115.285156 259.800781 119.726562 C 259.800781 124.183594 263.414062 127.792969 267.84375 127.792969 " fill-opacity="1" fill-rule="nonzero"/><path fill="#545454" d="M 195.050781 242.160156 L 204.570312 230.84375 C 206 229.148438 205.78125 226.609375 204.085938 225.179688 C 202.371094 223.75 199.84375 223.972656 198.414062 225.664062 L 188.988281 236.871094 L 177.992188 227.28125 C 176.328125 225.824219 173.78125 225.996094 172.320312 227.660156 C 170.859375 229.339844 171.035156 231.882812 172.714844 233.339844 L 183.804688 243.023438 L 174.285156 254.324219 C 172.855469 256.019531 173.074219 258.5625 174.773438 259.992188 C 175.527344 260.617188 176.453125 260.933594 177.363281 260.933594 C 178.511719 260.933594 179.640625 260.445312 180.441406 259.503906 L 189.867188 248.296875 L 200.863281 257.902344 C 201.617188 258.5625 202.558594 258.890625 203.503906 258.890625 C 204.617188 258.890625 205.734375 258.421875 206.535156 257.511719 C 207.996094 255.847656 207.824219 253.304688 206.140625 251.84375 L 195.050781 242.160156 " fill-opacity="1" fill-rule="nonzero"/><path fill="#545454" d="M 111.011719 119.695312 C 117.671875 119.695312 123.074219 125.25 123.074219 132.0625 C 123.074219 138.875 117.671875 144.414062 111.011719 144.414062 C 104.351562 144.414062 98.945312 138.875 98.945312 132.0625 C 98.945312 125.25 104.351562 119.695312 111.011719 119.695312 Z M 111.011719 152.449219 C 122.101562 152.449219 131.117188 143.300781 131.117188 132.0625 C 131.117188 120.808594 122.101562 111.660156 111.011719 111.660156 C 99.921875 111.660156 90.902344 120.808594 90.902344 132.0625 C 90.902344 143.300781 99.921875 152.449219 111.011719 152.449219 " fill-opacity="1" fill-rule="nonzero"/></svg>